<?xml version="1.0" encoding="utf-8"?>
<!-- Generator: Adobe Illustrator 28.3.0, SVG Export Plug-In . SVG Version: 6.00 Build 0)  -->
<svg version="1.1" id="Icons" xmlns="http://www.w3.org/2000/svg" xmlns:xlink="http://www.w3.org/1999/xlink" x="0px" y="0px"
	 viewBox="0 0 1024 1024" style="enable-background:new 0 0 1024 1024;" xml:space="preserve">
<style type="text/css">
	.st0{fill:#FFFFFF;}
	.st1{fill:#FA2921;}
	.st2{fill:#ED79B5;}
	.st3{fill:#FFB400;}
	.st4{fill:#1E83F7;}
	.st5{fill:#18C249;}
</style>
<symbol  id="Shadow" viewBox="-511.6 -512 1023.1 1024.1">
	<g>
		
			<image style="overflow:visible;opacity:0.3;enable-background:new    ;" width="4263" height="4267" xlink:href="AE3A8A282FC4BEA9.png"  transform="matrix(0.24 0 0 0.24 -511.56 -512.04)">
		</image>
		<path class="st0" d="M421.9,0.3c0,65.7,0,131.4,0,197.1c0,29.2-0.5,58.5-8.3,86.8c-19.8,71.4-66.2,115.7-138.6,131.2
			c-20.3,4.3-41.6,6.1-62.4,6.1c-141.1,0.5-282.2,0.6-423.3,0.2c-30.2-0.1-60.3-2.3-89-13c-61.9-23-100-67.2-114.9-131.2
			c-7-30.1-6.8-60.9-6.9-91.6c-0.3-123-0.3-246,0-369c0-23.2,0.9-46.4,3-69.5c8.6-91.3,72.7-149.7,147.1-163.3
			c26.8-4.9,53.9-5.6,81-5.7c128.1-0.2,256.3-0.2,384.4,0.2c24.4,0.1,48.7,1.7,72.9,4.9c72.7,9.7,131.9,65,147.8,136.6
			c5.3,23.6,7,47.5,7.1,71.6C422-138.9,421.8-69.3,421.9,0.3L421.9,0.3L421.9,0.3z"/>
	</g>
</symbol>
<g id="PhotoPrism">
	<g>
		<defs>
			<rect id="SVGID_1_" x="0.1" y="0" width="1023.8" height="1024.1"/>
		</defs>
		<clipPath id="SVGID_00000086677290538704956260000003985009034594488230_">
			<use xlink:href="#SVGID_1_"  style="overflow:visible;"/>
		</clipPath>
		<g style="clip-path:url(#SVGID_00000086677290538704956260000003985009034594488230_);">
			
				<use xlink:href="#Shadow"  width="1023.1" height="1024.1" x="-511.6" y="-512" transform="matrix(1 0 0 1 510.982 511)" style="overflow:visible;"/>
		</g>
	</g>
	<g id="Logo">
		<path class="st1" d="M490.1,384.4C532.7,422,567,462.4,589,500.5c37.9-67.8,63.2-148.4,63.6-199.7c0-0.4,0-0.7,0-1
			c0-75.9-75.7-105.5-141-105.5s-141,29.5-141,105.5c0,1,0,2.4,0,4.1C407,320.1,450.1,348.9,490.1,384.4z"/>
		<path class="st2" d="M258,591.4c26.6-29.6,67.4-61.7,113.5-88.8c49-28.8,98-49,141-58.2c-52.8-57-121.6-106-170.3-122.2
			c-0.3-0.1-0.7-0.2-0.9-0.3c-72.2-23.5-123.7,39.4-143.9,101.5s-15.5,143.2,56.8,166.7C255.1,590.5,256.4,590.9,258,591.4z"/>
		<path class="st3" d="M826.7,422.4c-20.2-62.1-71.7-124.9-143.9-101.5c-1,0.3-2.3,0.7-3.9,1.3c-4.1,39.6-18.3,89.5-39.6,138.5
			c-22.7,52.1-50.5,97.2-79.9,130c76.2,15.1,160.6,14.3,209.5-1.3c0.3-0.1,0.7-0.2,0.9-0.3C842.1,565.6,846.8,484.5,826.7,422.4z"/>
		<path class="st4" d="M447.2,652.1c-12.3-55.5-16.3-108.3-11.8-152.1c-70.5,32.6-138.4,82.9-168.8,124.2c-0.2,0.3-0.4,0.6-0.6,0.8
			c-44.6,61.4-0.7,129.9,52.1,168.2c52.8,38.3,131.4,59,176.1-2.5c0.6-0.8,1.4-2,2.4-3.3C476.7,753,458.8,704.3,447.2,652.1z"/>
		<path class="st5" d="M756.7,621c-38.9,8.3-90.8,10.3-144,5.1c-56.6-5.5-108.1-18-148.3-35.8c9.2,77.1,36,157.2,65.9,198.9
			c0.2,0.3,0.4,0.6,0.6,0.8c44.6,61.4,123.3,40.8,176.1,2.5c52.8-38.3,96.7-106.8,52.1-168.2C758.5,623.5,757.7,622.4,756.7,621z"/>
	</g>
</g>
</svg>
